<svg xmlns="http://www.w3.org/2000/svg" xmlns:xlink="http://www.w3.org/1999/xlink" width="510" zoomAndPan="magnify" viewBox="0 0 382.5 257.99999" height="344" preserveAspectRatio="xMidYMid meet" version="1.0"><defs><g/><clipPath id="16e3da4928"><path d="M 0 0.167969 L 382 0.167969 L 382 257.832031 L 0 257.832031 Z M 0 0.167969 " clip-rule="nonzero"/></clipPath></defs><g clip-path="url(#16e3da4928)"><path fill="#ffffff" d="M 0 0.167969 L 382 0.167969 L 382 257.832031 L 0 257.832031 Z M 0 0.167969 " fill-opacity="1" fill-rule="nonzero"/></g><g fill="#ffffff" fill-opacity="1"><g transform="translate(123.294363, 171.069478)"><g><path d="M 26.421875 0.640625 C 23.097656 0.640625 20.007812 0.0625 17.15625 -1.09375 C 14.3125 -2.257812 11.84375 -3.890625 9.75 -5.984375 C 7.65625 -8.078125 6.023438 -10.546875 4.859375 -13.390625 C 3.691406 -16.242188 3.109375 -19.332031 3.109375 -22.65625 C 3.109375 -25.976562 3.691406 -29.0625 4.859375 -31.90625 C 6.023438 -34.757812 7.65625 -37.234375 9.75 -39.328125 C 11.84375 -41.421875 14.3125 -43.050781 17.15625 -44.21875 C 20.007812 -45.382812 23.097656 -45.96875 26.421875 -45.96875 C 28.703125 -45.96875 30.910156 -45.695312 33.046875 -45.15625 C 35.191406 -44.625 37.101562 -43.816406 38.78125 -42.734375 C 39.082031 -42.515625 39.304688 -42.265625 39.453125 -41.984375 C 39.609375 -41.703125 39.6875 -41.410156 39.6875 -41.109375 C 39.6875 -40.503906 39.492188 -40.019531 39.109375 -39.65625 C 38.722656 -39.289062 38.3125 -39.109375 37.875 -39.109375 C 37.664062 -39.109375 37.460938 -39.140625 37.265625 -39.203125 C 37.066406 -39.265625 36.882812 -39.34375 36.71875 -39.4375 C 35.25 -40.25 33.648438 -40.894531 31.921875 -41.375 C 30.191406 -41.851562 28.359375 -42.09375 26.421875 -42.09375 C 22.703125 -42.09375 19.394531 -41.25 16.5 -39.5625 C 13.613281 -37.875 11.347656 -35.5625 9.703125 -32.625 C 8.066406 -29.695312 7.25 -26.375 7.25 -22.65625 C 7.25 -18.945312 8.066406 -15.625 9.703125 -12.6875 C 11.347656 -9.75 13.613281 -7.4375 16.5 -5.75 C 19.394531 -4.070312 22.703125 -3.234375 26.421875 -3.234375 C 28.359375 -3.234375 30.304688 -3.515625 32.265625 -4.078125 C 34.234375 -4.640625 35.929688 -5.394531 37.359375 -6.34375 L 37.03125 -4.984375 L 37.03125 -19.875 L 38.015625 -18.96875 L 26.8125 -18.96875 C 26.25 -18.96875 25.769531 -19.160156 25.375 -19.546875 C 24.988281 -19.941406 24.796875 -20.398438 24.796875 -20.921875 C 24.796875 -21.523438 24.988281 -22 25.375 -22.34375 C 25.769531 -22.6875 26.25 -22.859375 26.8125 -22.859375 L 39.171875 -22.859375 C 39.734375 -22.859375 40.195312 -22.671875 40.5625 -22.296875 C 40.925781 -21.929688 41.109375 -21.472656 41.109375 -20.921875 L 41.109375 -5.3125 C 41.109375 -4.96875 41.019531 -4.644531 40.84375 -4.34375 C 40.675781 -4.039062 40.441406 -3.78125 40.140625 -3.5625 C 38.242188 -2.269531 36.117188 -1.242188 33.765625 -0.484375 C 31.410156 0.265625 28.960938 0.640625 26.421875 0.640625 Z M 26.421875 0.640625 "/></g></g></g><g fill="#ffffff" fill-opacity="1"><g transform="translate(168.295096, 171.069478)"><g><path d="M 33.09375 -45.578125 C 33.644531 -45.578125 34.101562 -45.375 34.46875 -44.96875 C 34.84375 -44.5625 35.03125 -44.117188 35.03125 -43.640625 C 35.03125 -43.421875 34.992188 -43.210938 34.921875 -43.015625 C 34.859375 -42.828125 34.765625 -42.625 34.640625 -42.40625 L 19.421875 -21.5 L 20.203125 -24.015625 L 20.203125 -1.9375 C 20.203125 -1.425781 20.003906 -0.972656 19.609375 -0.578125 C 19.222656 -0.191406 18.75 0 18.1875 0 C 17.632812 0 17.171875 -0.191406 16.796875 -0.578125 C 16.429688 -0.972656 16.25 -1.425781 16.25 -1.9375 L 16.25 -23.5625 L 16.578125 -22.015625 L 1.75 -42.28125 C 1.570312 -42.5 1.441406 -42.722656 1.359375 -42.953125 C 1.273438 -43.191406 1.234375 -43.421875 1.234375 -43.640625 C 1.234375 -44.203125 1.457031 -44.664062 1.90625 -45.03125 C 2.363281 -45.394531 2.828125 -45.578125 3.296875 -45.578125 C 3.953125 -45.578125 4.492188 -45.273438 4.921875 -44.671875 L 18.84375 -25.703125 L 17.875 -25.828125 L 31.40625 -44.671875 C 31.832031 -45.273438 32.394531 -45.578125 33.09375 -45.578125 Z M 33.09375 -45.578125 "/></g></g></g><g fill="#ffffff" fill-opacity="1"><g transform="translate(204.489936, 171.069478)"><g><path d="M 8.03125 -45.328125 C 8.332031 -45.328125 8.644531 -45.257812 8.96875 -45.125 C 9.289062 -45 9.5625 -44.785156 9.78125 -44.484375 L 27.640625 -17.671875 L 25.90625 -17.734375 L 43.828125 -44.484375 C 44.304688 -45.128906 44.890625 -45.410156 45.578125 -45.328125 C 46.097656 -45.328125 46.539062 -45.140625 46.90625 -44.765625 C 47.28125 -44.398438 47.46875 -43.9375 47.46875 -43.375 L 47.46875 -1.9375 C 47.46875 -1.425781 47.269531 -0.972656 46.875 -0.578125 C 46.488281 -0.191406 46.015625 0 45.453125 0 C 44.847656 0 44.347656 -0.191406 43.953125 -0.578125 C 43.566406 -0.972656 43.375 -1.425781 43.375 -1.9375 L 43.375 -39.4375 L 44.546875 -39.296875 L 28.171875 -14.5 C 28.035156 -14.238281 27.835938 -14.03125 27.578125 -13.875 C 27.316406 -13.726562 27.015625 -13.679688 26.671875 -13.734375 C 26.367188 -13.679688 26.078125 -13.726562 25.796875 -13.875 C 25.515625 -14.03125 25.289062 -14.238281 25.125 -14.5 L 8.671875 -39.5625 L 9.90625 -40.40625 L 9.90625 -1.9375 C 9.90625 -1.425781 9.722656 -0.972656 9.359375 -0.578125 C 8.992188 -0.191406 8.53125 0 7.96875 0 C 7.40625 0 6.953125 -0.191406 6.609375 -0.578125 C 6.265625 -0.972656 6.09375 -1.425781 6.09375 -1.9375 L 6.09375 -43.375 C 6.09375 -43.894531 6.273438 -44.347656 6.640625 -44.734375 C 7.003906 -45.128906 7.46875 -45.328125 8.03125 -45.328125 Z M 8.03125 -45.328125 "/></g></g></g><g fill="#00ffff" fill-opacity="1"><g transform="translate(98.253291, 141.746375)"><g><path d="M -14.78125 -58.78125 C -11.6875 -61.675781 -8.476562 -63.109375 -5.15625 -63.078125 C -1.832031 -63.046875 1.222656 -61.539062 4.015625 -58.5625 C 5.472656 -57.007812 6.523438 -55.222656 7.171875 -53.203125 C 7.816406 -51.191406 7.898438 -49.144531 7.421875 -47.0625 C 6.941406 -44.988281 5.800781 -43.003906 4 -41.109375 L 2.75 -42.015625 C 4.101562 -43.285156 5.613281 -44.335938 7.28125 -45.171875 C 8.945312 -46.003906 10.691406 -46.484375 12.515625 -46.609375 C 14.347656 -46.734375 16.171875 -46.453125 17.984375 -45.765625 C 19.796875 -45.085938 21.550781 -43.847656 23.25 -42.046875 C 25.039062 -40.128906 26.257812 -38.175781 26.90625 -36.1875 C 27.5625 -34.195312 27.742188 -32.269531 27.453125 -30.40625 C 27.160156 -28.550781 26.503906 -26.765625 25.484375 -25.046875 C 24.460938 -23.328125 23.203125 -21.757812 21.703125 -20.34375 L 6.84375 -6.421875 C 6.40625 -6.003906 5.863281 -5.800781 5.21875 -5.8125 C 4.570312 -5.832031 4.046875 -6.066406 3.640625 -6.515625 L -29.5 -41.84375 C -29.914062 -42.289062 -30.113281 -42.832031 -30.09375 -43.46875 C -30.070312 -44.113281 -29.84375 -44.644531 -29.40625 -45.0625 Z M -12.15625 -55.125 L -25.125 -42.953125 L -25.40625 -44.546875 L -10.75 -28.921875 L -12.140625 -29.1875 L 0.78125 -41.3125 C 2.664062 -43.132812 3.6875 -45.269531 3.84375 -47.71875 C 4.007812 -50.164062 2.972656 -52.582031 0.734375 -54.96875 C -1.160156 -56.988281 -3.238281 -58.023438 -5.5 -58.078125 C -7.769531 -58.140625 -9.988281 -57.15625 -12.15625 -55.125 Z M 4.28125 -38.34375 L -8.703125 -26.1875 L -8.71875 -26.765625 L 6.125 -10.9375 L 5.328125 -11.125 L 18.46875 -23.453125 C 20.820312 -25.660156 22.226562 -28.101562 22.6875 -30.78125 C 23.15625 -33.46875 22.164062 -36.117188 19.71875 -38.734375 C 17.988281 -40.578125 16.21875 -41.679688 14.40625 -42.046875 C 12.601562 -42.421875 10.832031 -42.242188 9.09375 -41.515625 C 7.351562 -40.785156 5.75 -39.726562 4.28125 -38.34375 Z M 4.28125 -38.34375 "/></g></g></g><g fill="#00ffff" fill-opacity="1"><g transform="translate(124.830771, 112.845807)"><g><path d="M 41.640625 -43.84375 C 43.023438 -40.113281 43.71875 -36.484375 43.71875 -32.953125 C 43.726562 -29.421875 43.09375 -26.109375 41.8125 -23.015625 C 40.539062 -19.929688 38.6875 -17.21875 36.25 -14.875 C 33.8125 -12.539062 30.867188 -10.726562 27.421875 -9.4375 C 23.972656 -8.15625 20.5625 -7.59375 17.1875 -7.75 C 13.8125 -7.914062 10.628906 -8.75 7.640625 -10.25 C 4.660156 -11.75 2.015625 -13.832031 -0.296875 -16.5 C -2.617188 -19.164062 -4.472656 -22.363281 -5.859375 -26.09375 C -7.265625 -29.820312 -7.96875 -33.453125 -7.96875 -36.984375 C -7.96875 -40.515625 -7.328125 -43.820312 -6.046875 -46.90625 C -4.773438 -50 -2.921875 -52.710938 -0.484375 -55.046875 C 1.953125 -57.378906 4.894531 -59.1875 8.34375 -60.46875 C 11.789062 -61.757812 15.203125 -62.328125 18.578125 -62.171875 C 21.953125 -62.015625 25.128906 -61.1875 28.109375 -59.6875 C 31.097656 -58.1875 33.75 -56.101562 36.0625 -53.4375 C 38.375 -50.769531 40.234375 -47.570312 41.640625 -43.84375 Z M 37.09375 -42.140625 C 35.507812 -46.347656 33.3125 -49.738281 30.5 -52.3125 C 27.6875 -54.894531 24.5 -56.546875 20.9375 -57.265625 C 17.382812 -57.992188 13.71875 -57.648438 9.9375 -56.234375 C 6.207031 -54.847656 3.222656 -52.707031 0.984375 -49.8125 C -1.253906 -46.925781 -2.59375 -43.582031 -3.03125 -39.78125 C -3.46875 -35.988281 -2.894531 -31.988281 -1.3125 -27.78125 C 0.25 -23.570312 2.4375 -20.175781 5.25 -17.59375 C 8.070312 -15.007812 11.273438 -13.363281 14.859375 -12.65625 C 18.441406 -11.957031 22.097656 -12.300781 25.828125 -13.6875 C 29.609375 -15.101562 32.601562 -17.242188 34.8125 -20.109375 C 37.03125 -22.984375 38.351562 -26.320312 38.78125 -30.125 C 39.21875 -33.925781 38.65625 -37.929688 37.09375 -42.140625 Z M 37.09375 -42.140625 "/></g></g></g><g fill="#00ffff" fill-opacity="1"><g transform="translate(168.053147, 94.153653)"><g><path d="M 56.0625 -22.609375 C 55.78125 -18.640625 54.90625 -15.046875 53.4375 -11.828125 C 51.976562 -8.617188 50.03125 -5.875 47.59375 -3.59375 C 45.164062 -1.3125 42.359375 0.382812 39.171875 1.5 C 35.984375 2.613281 32.546875 3.039062 28.859375 2.78125 C 25.191406 2.519531 21.859375 1.613281 18.859375 0.0625 C 15.859375 -1.476562 13.304688 -3.546875 11.203125 -6.140625 C 9.109375 -8.742188 7.5625 -11.738281 6.5625 -15.125 C 5.5625 -18.519531 5.203125 -22.203125 5.484375 -26.171875 C 5.765625 -30.148438 6.632812 -33.742188 8.09375 -36.953125 C 9.5625 -40.160156 11.515625 -42.90625 13.953125 -45.1875 C 16.390625 -47.476562 19.203125 -49.179688 22.390625 -50.296875 C 25.578125 -51.410156 29.003906 -51.835938 32.671875 -51.578125 C 36.359375 -51.316406 39.703125 -50.410156 42.703125 -48.859375 C 45.703125 -47.316406 48.25 -45.242188 50.34375 -42.640625 C 52.4375 -40.035156 53.984375 -37.039062 54.984375 -33.65625 C 55.984375 -30.269531 56.34375 -26.585938 56.0625 -22.609375 Z M 51.234375 -22.953125 C 51.546875 -27.441406 50.953125 -31.441406 49.453125 -34.953125 C 47.960938 -38.472656 45.75 -41.296875 42.8125 -43.421875 C 39.875 -45.554688 36.390625 -46.765625 32.359375 -47.046875 C 28.390625 -47.328125 24.789062 -46.617188 21.5625 -44.921875 C 18.332031 -43.222656 15.726562 -40.738281 13.75 -37.46875 C 11.78125 -34.195312 10.640625 -30.316406 10.328125 -25.828125 C 10.015625 -21.347656 10.601562 -17.347656 12.09375 -13.828125 C 13.59375 -10.316406 15.820312 -7.492188 18.78125 -5.359375 C 21.738281 -3.222656 25.203125 -2.015625 29.171875 -1.734375 C 33.203125 -1.453125 36.820312 -2.160156 40.03125 -3.859375 C 43.238281 -5.566406 45.828125 -8.054688 47.796875 -11.328125 C 49.773438 -14.597656 50.921875 -18.472656 51.234375 -22.953125 Z M 51.234375 -22.953125 "/></g></g></g><g fill="#00ffff" fill-opacity="1"><g transform="translate(215.930614, 97.084813)"><g><path d="M 19.328125 9.9375 C 15.828125 8.351562 13.070312 6.390625 11.0625 4.046875 C 9.050781 1.703125 7.421875 -1.160156 6.171875 -4.546875 C 6.015625 -4.828125 5.921875 -5.144531 5.890625 -5.5 C 5.859375 -5.851562 5.925781 -6.210938 6.09375 -6.578125 C 6.351562 -7.117188 6.8125 -7.515625 7.46875 -7.765625 C 8.125 -8.015625 8.726562 -8.007812 9.28125 -7.75 C 9.820312 -7.5 10.210938 -7.035156 10.453125 -6.359375 C 11.328125 -3.597656 12.65625 -1.1875 14.4375 0.875 C 16.226562 2.945312 18.421875 4.597656 21.015625 5.828125 C 23.203125 6.859375 25.3125 7.4375 27.34375 7.5625 C 29.382812 7.6875 31.207031 7.34375 32.8125 6.53125 C 34.425781 5.726562 35.628906 4.484375 36.421875 2.796875 C 37.421875 0.691406 37.648438 -1.273438 37.109375 -3.109375 C 36.578125 -4.953125 35.578125 -6.734375 34.109375 -8.453125 C 32.640625 -10.179688 30.925781 -11.929688 28.96875 -13.703125 C 27.351562 -15.128906 25.867188 -16.59375 24.515625 -18.09375 C 23.171875 -19.601562 22.078125 -21.179688 21.234375 -22.828125 C 20.398438 -24.484375 19.96875 -26.234375 19.9375 -28.078125 C 19.914062 -29.929688 20.414062 -31.929688 21.4375 -34.078125 C 22.570312 -36.492188 24.21875 -38.335938 26.375 -39.609375 C 28.539062 -40.878906 31.050781 -41.492188 33.90625 -41.453125 C 36.769531 -41.410156 39.753906 -40.65625 42.859375 -39.1875 C 45.546875 -37.925781 47.914062 -36.25 49.96875 -34.15625 C 52.019531 -32.070312 53.363281 -29.800781 54 -27.34375 C 54.332031 -26.28125 54.359375 -25.453125 54.078125 -24.859375 C 53.867188 -24.410156 53.425781 -24.0625 52.75 -23.8125 C 52.082031 -23.570312 51.472656 -23.582031 50.921875 -23.84375 C 50.472656 -24.0625 50.160156 -24.40625 49.984375 -24.875 C 49.648438 -26.195312 49.066406 -27.515625 48.234375 -28.828125 C 47.398438 -30.140625 46.363281 -31.335938 45.125 -32.421875 C 43.882812 -33.503906 42.492188 -34.410156 40.953125 -35.140625 C 38.804688 -36.160156 36.722656 -36.742188 34.703125 -36.890625 C 32.679688 -37.035156 30.882812 -36.722656 29.3125 -35.953125 C 27.75 -35.191406 26.554688 -33.941406 25.734375 -32.203125 C 24.835938 -30.296875 24.644531 -28.460938 25.15625 -26.703125 C 25.664062 -24.953125 26.625 -23.257812 28.03125 -21.625 C 29.4375 -19.988281 30.984375 -18.351562 32.671875 -16.71875 C 34.367188 -15.25 35.953125 -13.734375 37.421875 -12.171875 C 38.890625 -10.617188 40.070312 -8.988281 40.96875 -7.28125 C 41.863281 -5.570312 42.332031 -3.726562 42.375 -1.75 C 42.425781 0.21875 41.878906 2.414062 40.734375 4.84375 C 39.640625 7.164062 37.988281 8.945312 35.78125 10.1875 C 33.582031 11.4375 31.066406 12.066406 28.234375 12.078125 C 25.410156 12.085938 22.441406 11.375 19.328125 9.9375 Z M 19.328125 9.9375 "/></g></g></g><g fill="#00ffff" fill-opacity="1"><g transform="translate(247.272709, 110.006909)"><g><path d="M 16.46875 15.859375 C 15.957031 15.367188 15.703125 14.8125 15.703125 14.1875 C 15.710938 13.5625 15.929688 13.035156 16.359375 12.609375 L 49.796875 -22.140625 L 53.171875 -18.890625 L 19.734375 15.859375 C 19.304688 16.285156 18.769531 16.503906 18.125 16.515625 C 17.488281 16.523438 16.9375 16.304688 16.46875 15.859375 Z M 37.25 -31.703125 C 36.820312 -32.117188 36.582031 -32.628906 36.53125 -33.234375 C 36.476562 -33.835938 36.679688 -34.378906 37.140625 -34.859375 C 37.554688 -35.296875 38.066406 -35.5 38.671875 -35.46875 C 39.285156 -35.445312 39.804688 -35.226562 40.234375 -34.8125 L 66.1875 -9.828125 C 66.625 -9.398438 66.863281 -8.882812 66.90625 -8.28125 C 66.957031 -7.675781 66.753906 -7.132812 66.296875 -6.65625 C 65.835938 -6.1875 65.316406 -5.972656 64.734375 -6.015625 C 64.148438 -6.054688 63.640625 -6.289062 63.203125 -6.71875 Z M 37.25 -31.703125 "/></g></g></g><g fill="#ff00ff" fill-opacity="1"><g transform="translate(101.109745, 139.891356)"><g><path d="M -14.78125 -58.78125 C -11.6875 -61.675781 -8.476562 -63.109375 -5.15625 -63.078125 C -1.832031 -63.046875 1.222656 -61.539062 4.015625 -58.5625 C 5.472656 -57.007812 6.523438 -55.222656 7.171875 -53.203125 C 7.816406 -51.191406 7.898438 -49.144531 7.421875 -47.0625 C 6.941406 -44.988281 5.800781 -43.003906 4 -41.109375 L 2.75 -42.015625 C 4.101562 -43.285156 5.613281 -44.335938 7.28125 -45.171875 C 8.945312 -46.003906 10.691406 -46.484375 12.515625 -46.609375 C 14.347656 -46.734375 16.171875 -46.453125 17.984375 -45.765625 C 19.796875 -45.085938 21.550781 -43.847656 23.25 -42.046875 C 25.039062 -40.128906 26.257812 -38.175781 26.90625 -36.1875 C 27.5625 -34.195312 27.742188 -32.269531 27.453125 -30.40625 C 27.160156 -28.550781 26.503906 -26.765625 25.484375 -25.046875 C 24.460938 -23.328125 23.203125 -21.757812 21.703125 -20.34375 L 6.84375 -6.421875 C 6.40625 -6.003906 5.863281 -5.800781 5.21875 -5.8125 C 4.570312 -5.832031 4.046875 -6.066406 3.640625 -6.515625 L -29.5 -41.84375 C -29.914062 -42.289062 -30.113281 -42.832031 -30.09375 -43.46875 C -30.070312 -44.113281 -29.84375 -44.644531 -29.40625 -45.0625 Z M -12.15625 -55.125 L -25.125 -42.953125 L -25.40625 -44.546875 L -10.75 -28.921875 L -12.140625 -29.1875 L 0.78125 -41.3125 C 2.664062 -43.132812 3.6875 -45.269531 3.84375 -47.71875 C 4.007812 -50.164062 2.972656 -52.582031 0.734375 -54.96875 C -1.160156 -56.988281 -3.238281 -58.023438 -5.5 -58.078125 C -7.769531 -58.140625 -9.988281 -57.15625 -12.15625 -55.125 Z M 4.28125 -38.34375 L -8.703125 -26.1875 L -8.71875 -26.765625 L 6.125 -10.9375 L 5.328125 -11.125 L 18.46875 -23.453125 C 20.820312 -25.660156 22.226562 -28.101562 22.6875 -30.78125 C 23.15625 -33.46875 22.164062 -36.117188 19.71875 -38.734375 C 17.988281 -40.578125 16.21875 -41.679688 14.40625 -42.046875 C 12.601562 -42.421875 10.832031 -42.242188 9.09375 -41.515625 C 7.351562 -40.785156 5.75 -39.726562 4.28125 -38.34375 Z M 4.28125 -38.34375 "/></g></g></g><g fill="#ff00ff" fill-opacity="1"><g transform="translate(127.687225, 110.990793)"><g><path d="M 41.640625 -43.84375 C 43.023438 -40.113281 43.71875 -36.484375 43.71875 -32.953125 C 43.726562 -29.421875 43.09375 -26.109375 41.8125 -23.015625 C 40.539062 -19.929688 38.6875 -17.21875 36.25 -14.875 C 33.8125 -12.539062 30.867188 -10.726562 27.421875 -9.4375 C 23.972656 -8.15625 20.5625 -7.59375 17.1875 -7.75 C 13.8125 -7.914062 10.628906 -8.75 7.640625 -10.25 C 4.660156 -11.75 2.015625 -13.832031 -0.296875 -16.5 C -2.617188 -19.164062 -4.472656 -22.363281 -5.859375 -26.09375 C -7.265625 -29.820312 -7.96875 -33.453125 -7.96875 -36.984375 C -7.96875 -40.515625 -7.328125 -43.820312 -6.046875 -46.90625 C -4.773438 -50 -2.921875 -52.710938 -0.484375 -55.046875 C 1.953125 -57.378906 4.894531 -59.1875 8.34375 -60.46875 C 11.789062 -61.757812 15.203125 -62.328125 18.578125 -62.171875 C 21.953125 -62.015625 25.128906 -61.1875 28.109375 -59.6875 C 31.097656 -58.1875 33.75 -56.101562 36.0625 -53.4375 C 38.375 -50.769531 40.234375 -47.570312 41.640625 -43.84375 Z M 37.09375 -42.140625 C 35.507812 -46.347656 33.3125 -49.738281 30.5 -52.3125 C 27.6875 -54.894531 24.5 -56.546875 20.9375 -57.265625 C 17.382812 -57.992188 13.71875 -57.648438 9.9375 -56.234375 C 6.207031 -54.847656 3.222656 -52.707031 0.984375 -49.8125 C -1.253906 -46.925781 -2.59375 -43.582031 -3.03125 -39.78125 C -3.46875 -35.988281 -2.894531 -31.988281 -1.3125 -27.78125 C 0.25 -23.570312 2.4375 -20.175781 5.25 -17.59375 C 8.070312 -15.007812 11.273438 -13.363281 14.859375 -12.65625 C 18.441406 -11.957031 22.097656 -12.300781 25.828125 -13.6875 C 29.609375 -15.101562 32.601562 -17.242188 34.8125 -20.109375 C 37.03125 -22.984375 38.351562 -26.320312 38.78125 -30.125 C 39.21875 -33.925781 38.65625 -37.929688 37.09375 -42.140625 Z M 37.09375 -42.140625 "/></g></g></g><g fill="#ff00ff" fill-opacity="1"><g transform="translate(170.909594, 92.298638)"><g><path d="M 56.0625 -22.609375 C 55.78125 -18.640625 54.90625 -15.046875 53.4375 -11.828125 C 51.976562 -8.617188 50.03125 -5.875 47.59375 -3.59375 C 45.164062 -1.3125 42.359375 0.382812 39.171875 1.5 C 35.984375 2.613281 32.546875 3.039062 28.859375 2.78125 C 25.191406 2.519531 21.859375 1.613281 18.859375 0.0625 C 15.859375 -1.476562 13.304688 -3.546875 11.203125 -6.140625 C 9.109375 -8.742188 7.5625 -11.738281 6.5625 -15.125 C 5.5625 -18.519531 5.203125 -22.203125 5.484375 -26.171875 C 5.765625 -30.148438 6.632812 -33.742188 8.09375 -36.953125 C 9.5625 -40.160156 11.515625 -42.90625 13.953125 -45.1875 C 16.390625 -47.476562 19.203125 -49.179688 22.390625 -50.296875 C 25.578125 -51.410156 29.003906 -51.835938 32.671875 -51.578125 C 36.359375 -51.316406 39.703125 -50.410156 42.703125 -48.859375 C 45.703125 -47.316406 48.25 -45.242188 50.34375 -42.640625 C 52.4375 -40.035156 53.984375 -37.039062 54.984375 -33.65625 C 55.984375 -30.269531 56.34375 -26.585938 56.0625 -22.609375 Z M 51.234375 -22.953125 C 51.546875 -27.441406 50.953125 -31.441406 49.453125 -34.953125 C 47.960938 -38.472656 45.75 -41.296875 42.8125 -43.421875 C 39.875 -45.554688 36.390625 -46.765625 32.359375 -47.046875 C 28.390625 -47.328125 24.789062 -46.617188 21.5625 -44.921875 C 18.332031 -43.222656 15.726562 -40.738281 13.75 -37.46875 C 11.78125 -34.195312 10.640625 -30.316406 10.328125 -25.828125 C 10.015625 -21.347656 10.601562 -17.347656 12.09375 -13.828125 C 13.59375 -10.316406 15.820312 -7.492188 18.78125 -5.359375 C 21.738281 -3.222656 25.203125 -2.015625 29.171875 -1.734375 C 33.203125 -1.453125 36.820312 -2.160156 40.03125 -3.859375 C 43.238281 -5.566406 45.828125 -8.054688 47.796875 -11.328125 C 49.773438 -14.597656 50.921875 -18.472656 51.234375 -22.953125 Z M 51.234375 -22.953125 "/></g></g></g><g fill="#ff00ff" fill-opacity="1"><g transform="translate(218.787046, 95.229799)"><g><path d="M 19.328125 9.9375 C 15.828125 8.351562 13.070312 6.390625 11.0625 4.046875 C 9.050781 1.703125 7.421875 -1.160156 6.171875 -4.546875 C 6.015625 -4.828125 5.921875 -5.144531 5.890625 -5.5 C 5.859375 -5.851562 5.925781 -6.210938 6.09375 -6.578125 C 6.351562 -7.117188 6.8125 -7.515625 7.46875 -7.765625 C 8.125 -8.015625 8.726562 -8.007812 9.28125 -7.75 C 9.820312 -7.5 10.210938 -7.035156 10.453125 -6.359375 C 11.328125 -3.597656 12.65625 -1.1875 14.4375 0.875 C 16.226562 2.945312 18.421875 4.597656 21.015625 5.828125 C 23.203125 6.859375 25.3125 7.4375 27.34375 7.5625 C 29.382812 7.6875 31.207031 7.34375 32.8125 6.53125 C 34.425781 5.726562 35.628906 4.484375 36.421875 2.796875 C 37.421875 0.691406 37.648438 -1.273438 37.109375 -3.109375 C 36.578125 -4.953125 35.578125 -6.734375 34.109375 -8.453125 C 32.640625 -10.179688 30.925781 -11.929688 28.96875 -13.703125 C 27.351562 -15.128906 25.867188 -16.59375 24.515625 -18.09375 C 23.171875 -19.601562 22.078125 -21.179688 21.234375 -22.828125 C 20.398438 -24.484375 19.96875 -26.234375 19.9375 -28.078125 C 19.914062 -29.929688 20.414062 -31.929688 21.4375 -34.078125 C 22.570312 -36.492188 24.21875 -38.335938 26.375 -39.609375 C 28.539062 -40.878906 31.050781 -41.492188 33.90625 -41.453125 C 36.769531 -41.410156 39.753906 -40.65625 42.859375 -39.1875 C 45.546875 -37.925781 47.914062 -36.25 49.96875 -34.15625 C 52.019531 -32.070312 53.363281 -29.800781 54 -27.34375 C 54.332031 -26.28125 54.359375 -25.453125 54.078125 -24.859375 C 53.867188 -24.410156 53.425781 -24.0625 52.75 -23.8125 C 52.082031 -23.570312 51.472656 -23.582031 50.921875 -23.84375 C 50.472656 -24.0625 50.160156 -24.40625 49.984375 -24.875 C 49.648438 -26.195312 49.066406 -27.515625 48.234375 -28.828125 C 47.398438 -30.140625 46.363281 -31.335938 45.125 -32.421875 C 43.882812 -33.503906 42.492188 -34.410156 40.953125 -35.140625 C 38.804688 -36.160156 36.722656 -36.742188 34.703125 -36.890625 C 32.679688 -37.035156 30.882812 -36.722656 29.3125 -35.953125 C 27.75 -35.191406 26.554688 -33.941406 25.734375 -32.203125 C 24.835938 -30.296875 24.644531 -28.460938 25.15625 -26.703125 C 25.664062 -24.953125 26.625 -23.257812 28.03125 -21.625 C 29.4375 -19.988281 30.984375 -18.351562 32.671875 -16.71875 C 34.367188 -15.25 35.953125 -13.734375 37.421875 -12.171875 C 38.890625 -10.617188 40.070312 -8.988281 40.96875 -7.28125 C 41.863281 -5.570312 42.332031 -3.726562 42.375 -1.75 C 42.425781 0.21875 41.878906 2.414062 40.734375 4.84375 C 39.640625 7.164062 37.988281 8.945312 35.78125 10.1875 C 33.582031 11.4375 31.066406 12.066406 28.234375 12.078125 C 25.410156 12.085938 22.441406 11.375 19.328125 9.9375 Z M 19.328125 9.9375 "/></g></g></g><g fill="#ff00ff" fill-opacity="1"><g transform="translate(250.12917, 108.151893)"><g><path d="M 16.46875 15.859375 C 15.957031 15.367188 15.703125 14.8125 15.703125 14.1875 C 15.710938 13.5625 15.929688 13.035156 16.359375 12.609375 L 49.796875 -22.140625 L 53.171875 -18.890625 L 19.734375 15.859375 C 19.304688 16.285156 18.769531 16.503906 18.125 16.515625 C 17.488281 16.523438 16.9375 16.304688 16.46875 15.859375 Z M 37.25 -31.703125 C 36.820312 -32.117188 36.582031 -32.628906 36.53125 -33.234375 C 36.476562 -33.835938 36.679688 -34.378906 37.140625 -34.859375 C 37.554688 -35.296875 38.066406 -35.5 38.671875 -35.46875 C 39.285156 -35.445312 39.804688 -35.226562 40.234375 -34.8125 L 66.1875 -9.828125 C 66.625 -9.398438 66.863281 -8.882812 66.90625 -8.28125 C 66.957031 -7.675781 66.753906 -7.132812 66.296875 -6.65625 C 65.835938 -6.1875 65.316406 -5.972656 64.734375 -6.015625 C 64.148438 -6.054688 63.640625 -6.289062 63.203125 -6.71875 Z M 37.25 -31.703125 "/></g></g></g><g fill="#ffffff" fill-opacity="1"><g transform="translate(99.681521, 140.818862)"><g><path d="M -14.78125 -58.78125 C -11.6875 -61.675781 -8.476562 -63.109375 -5.15625 -63.078125 C -1.832031 -63.046875 1.222656 -61.539062 4.015625 -58.5625 C 5.472656 -57.007812 6.523438 -55.222656 7.171875 -53.203125 C 7.816406 -51.191406 7.898438 -49.144531 7.421875 -47.0625 C 6.941406 -44.988281 5.800781 -43.003906 4 -41.109375 L 2.75 -42.015625 C 4.101562 -43.285156 5.613281 -44.335938 7.28125 -45.171875 C 8.945312 -46.003906 10.691406 -46.484375 12.515625 -46.609375 C 14.347656 -46.734375 16.171875 -46.453125 17.984375 -45.765625 C 19.796875 -45.085938 21.550781 -43.847656 23.25 -42.046875 C 25.039062 -40.128906 26.257812 -38.175781 26.90625 -36.1875 C 27.5625 -34.195312 27.742188 -32.269531 27.453125 -30.40625 C 27.160156 -28.550781 26.503906 -26.765625 25.484375 -25.046875 C 24.460938 -23.328125 23.203125 -21.757812 21.703125 -20.34375 L 6.84375 -6.421875 C 6.40625 -6.003906 5.863281 -5.800781 5.21875 -5.8125 C 4.570312 -5.832031 4.046875 -6.066406 3.640625 -6.515625 L -29.5 -41.84375 C -29.914062 -42.289062 -30.113281 -42.832031 -30.09375 -43.46875 C -30.070312 -44.113281 -29.84375 -44.644531 -29.40625 -45.0625 Z M -12.15625 -55.125 L -25.125 -42.953125 L -25.40625 -44.546875 L -10.75 -28.921875 L -12.140625 -29.1875 L 0.78125 -41.3125 C 2.664062 -43.132812 3.6875 -45.269531 3.84375 -47.71875 C 4.007812 -50.164062 2.972656 -52.582031 0.734375 -54.96875 C -1.160156 -56.988281 -3.238281 -58.023438 -5.5 -58.078125 C -7.769531 -58.140625 -9.988281 -57.15625 -12.15625 -55.125 Z M 4.28125 -38.34375 L -8.703125 -26.1875 L -8.71875 -26.765625 L 6.125 -10.9375 L 5.328125 -11.125 L 18.46875 -23.453125 C 20.820312 -25.660156 22.226562 -28.101562 22.6875 -30.78125 C 23.15625 -33.46875 22.164062 -36.117188 19.71875 -38.734375 C 17.988281 -40.578125 16.21875 -41.679688 14.40625 -42.046875 C 12.601562 -42.421875 10.832031 -42.242188 9.09375 -41.515625 C 7.351562 -40.785156 5.75 -39.726562 4.28125 -38.34375 Z M 4.28125 -38.34375 "/></g></g></g><g fill="#ffffff" fill-opacity="1"><g transform="translate(126.259001, 111.918301)"><g><path d="M 41.640625 -43.84375 C 43.023438 -40.113281 43.71875 -36.484375 43.71875 -32.953125 C 43.726562 -29.421875 43.09375 -26.109375 41.8125 -23.015625 C 40.539062 -19.929688 38.6875 -17.21875 36.25 -14.875 C 33.8125 -12.539062 30.867188 -10.726562 27.421875 -9.4375 C 23.972656 -8.15625 20.5625 -7.59375 17.1875 -7.75 C 13.8125 -7.914062 10.628906 -8.75 7.640625 -10.25 C 4.660156 -11.75 2.015625 -13.832031 -0.296875 -16.5 C -2.617188 -19.164062 -4.472656 -22.363281 -5.859375 -26.09375 C -7.265625 -29.820312 -7.96875 -33.453125 -7.96875 -36.984375 C -7.96875 -40.515625 -7.328125 -43.820312 -6.046875 -46.90625 C -4.773438 -50 -2.921875 -52.710938 -0.484375 -55.046875 C 1.953125 -57.378906 4.894531 -59.1875 8.34375 -60.46875 C 11.789062 -61.757812 15.203125 -62.328125 18.578125 -62.171875 C 21.953125 -62.015625 25.128906 -61.1875 28.109375 -59.6875 C 31.097656 -58.1875 33.75 -56.101562 36.0625 -53.4375 C 38.375 -50.769531 40.234375 -47.570312 41.640625 -43.84375 Z M 37.09375 -42.140625 C 35.507812 -46.347656 33.3125 -49.738281 30.5 -52.3125 C 27.6875 -54.894531 24.5 -56.546875 20.9375 -57.265625 C 17.382812 -57.992188 13.71875 -57.648438 9.9375 -56.234375 C 6.207031 -54.847656 3.222656 -52.707031 0.984375 -49.8125 C -1.253906 -46.925781 -2.59375 -43.582031 -3.03125 -39.78125 C -3.46875 -35.988281 -2.894531 -31.988281 -1.3125 -27.78125 C 0.25 -23.570312 2.4375 -20.175781 5.25 -17.59375 C 8.070312 -15.007812 11.273438 -13.363281 14.859375 -12.65625 C 18.441406 -11.957031 22.097656 -12.300781 25.828125 -13.6875 C 29.609375 -15.101562 32.601562 -17.242188 34.8125 -20.109375 C 37.03125 -22.984375 38.351562 -26.320312 38.78125 -30.125 C 39.21875 -33.925781 38.65625 -37.929688 37.09375 -42.140625 Z M 37.09375 -42.140625 "/></g></g></g><g fill="#ffffff" fill-opacity="1"><g transform="translate(169.481378, 93.226145)"><g><path d="M 56.0625 -22.609375 C 55.78125 -18.640625 54.90625 -15.046875 53.4375 -11.828125 C 51.976562 -8.617188 50.03125 -5.875 47.59375 -3.59375 C 45.164062 -1.3125 42.359375 0.382812 39.171875 1.5 C 35.984375 2.613281 32.546875 3.039062 28.859375 2.78125 C 25.191406 2.519531 21.859375 1.613281 18.859375 0.0625 C 15.859375 -1.476562 13.304688 -3.546875 11.203125 -6.140625 C 9.109375 -8.742188 7.5625 -11.738281 6.5625 -15.125 C 5.5625 -18.519531 5.203125 -22.203125 5.484375 -26.171875 C 5.765625 -30.148438 6.632812 -33.742188 8.09375 -36.953125 C 9.5625 -40.160156 11.515625 -42.90625 13.953125 -45.1875 C 16.390625 -47.476562 19.203125 -49.179688 22.390625 -50.296875 C 25.578125 -51.410156 29.003906 -51.835938 32.671875 -51.578125 C 36.359375 -51.316406 39.703125 -50.410156 42.703125 -48.859375 C 45.703125 -47.316406 48.25 -45.242188 50.34375 -42.640625 C 52.4375 -40.035156 53.984375 -37.039062 54.984375 -33.65625 C 55.984375 -30.269531 56.34375 -26.585938 56.0625 -22.609375 Z M 51.234375 -22.953125 C 51.546875 -27.441406 50.953125 -31.441406 49.453125 -34.953125 C 47.960938 -38.472656 45.75 -41.296875 42.8125 -43.421875 C 39.875 -45.554688 36.390625 -46.765625 32.359375 -47.046875 C 28.390625 -47.328125 24.789062 -46.617188 21.5625 -44.921875 C 18.332031 -43.222656 15.726562 -40.738281 13.75 -37.46875 C 11.78125 -34.195312 10.640625 -30.316406 10.328125 -25.828125 C 10.015625 -21.347656 10.601562 -17.347656 12.09375 -13.828125 C 13.59375 -10.316406 15.820312 -7.492188 18.78125 -5.359375 C 21.738281 -3.222656 25.203125 -2.015625 29.171875 -1.734375 C 33.203125 -1.453125 36.820312 -2.160156 40.03125 -3.859375 C 43.238281 -5.566406 45.828125 -8.054688 47.796875 -11.328125 C 49.773438 -14.597656 50.921875 -18.472656 51.234375 -22.953125 Z M 51.234375 -22.953125 "/></g></g></g><g fill="#ffffff" fill-opacity="1"><g transform="translate(217.358847, 96.157307)"><g><path d="M 19.328125 9.9375 C 15.828125 8.351562 13.070312 6.390625 11.0625 4.046875 C 9.050781 1.703125 7.421875 -1.160156 6.171875 -4.546875 C 6.015625 -4.828125 5.921875 -5.144531 5.890625 -5.5 C 5.859375 -5.851562 5.925781 -6.210938 6.09375 -6.578125 C 6.351562 -7.117188 6.8125 -7.515625 7.46875 -7.765625 C 8.125 -8.015625 8.726562 -8.007812 9.28125 -7.75 C 9.820312 -7.5 10.210938 -7.035156 10.453125 -6.359375 C 11.328125 -3.597656 12.65625 -1.1875 14.4375 0.875 C 16.226562 2.945312 18.421875 4.597656 21.015625 5.828125 C 23.203125 6.859375 25.3125 7.4375 27.34375 7.5625 C 29.382812 7.6875 31.207031 7.34375 32.8125 6.53125 C 34.425781 5.726562 35.628906 4.484375 36.421875 2.796875 C 37.421875 0.691406 37.648438 -1.273438 37.109375 -3.109375 C 36.578125 -4.953125 35.578125 -6.734375 34.109375 -8.453125 C 32.640625 -10.179688 30.925781 -11.929688 28.96875 -13.703125 C 27.351562 -15.128906 25.867188 -16.59375 24.515625 -18.09375 C 23.171875 -19.601562 22.078125 -21.179688 21.234375 -22.828125 C 20.398438 -24.484375 19.96875 -26.234375 19.9375 -28.078125 C 19.914062 -29.929688 20.414062 -31.929688 21.4375 -34.078125 C 22.570312 -36.492188 24.21875 -38.335938 26.375 -39.609375 C 28.539062 -40.878906 31.050781 -41.492188 33.90625 -41.453125 C 36.769531 -41.410156 39.753906 -40.65625 42.859375 -39.1875 C 45.546875 -37.925781 47.914062 -36.25 49.96875 -34.15625 C 52.019531 -32.070312 53.363281 -29.800781 54 -27.34375 C 54.332031 -26.28125 54.359375 -25.453125 54.078125 -24.859375 C 53.867188 -24.410156 53.425781 -24.0625 52.75 -23.8125 C 52.082031 -23.570312 51.472656 -23.582031 50.921875 -23.84375 C 50.472656 -24.0625 50.160156 -24.40625 49.984375 -24.875 C 49.648438 -26.195312 49.066406 -27.515625 48.234375 -28.828125 C 47.398438 -30.140625 46.363281 -31.335938 45.125 -32.421875 C 43.882812 -33.503906 42.492188 -34.410156 40.953125 -35.140625 C 38.804688 -36.160156 36.722656 -36.742188 34.703125 -36.890625 C 32.679688 -37.035156 30.882812 -36.722656 29.3125 -35.953125 C 27.75 -35.191406 26.554688 -33.941406 25.734375 -32.203125 C 24.835938 -30.296875 24.644531 -28.460938 25.15625 -26.703125 C 25.664062 -24.953125 26.625 -23.257812 28.03125 -21.625 C 29.4375 -19.988281 30.984375 -18.351562 32.671875 -16.71875 C 34.367188 -15.25 35.953125 -13.734375 37.421875 -12.171875 C 38.890625 -10.617188 40.070312 -8.988281 40.96875 -7.28125 C 41.863281 -5.570312 42.332031 -3.726562 42.375 -1.75 C 42.425781 0.21875 41.878906 2.414062 40.734375 4.84375 C 39.640625 7.164062 37.988281 8.945312 35.78125 10.1875 C 33.582031 11.4375 31.066406 12.066406 28.234375 12.078125 C 25.410156 12.085938 22.441406 11.375 19.328125 9.9375 Z M 19.328125 9.9375 "/></g></g></g><g fill="#ffffff" fill-opacity="1"><g transform="translate(248.700939, 109.079404)"><g><path d="M 16.46875 15.859375 C 15.957031 15.367188 15.703125 14.8125 15.703125 14.1875 C 15.710938 13.5625 15.929688 13.035156 16.359375 12.609375 L 49.796875 -22.140625 L 53.171875 -18.890625 L 19.734375 15.859375 C 19.304688 16.285156 18.769531 16.503906 18.125 16.515625 C 17.488281 16.523438 16.9375 16.304688 16.46875 15.859375 Z M 37.25 -31.703125 C 36.820312 -32.117188 36.582031 -32.628906 36.53125 -33.234375 C 36.476562 -33.835938 36.679688 -34.378906 37.140625 -34.859375 C 37.554688 -35.296875 38.066406 -35.5 38.671875 -35.46875 C 39.285156 -35.445312 39.804688 -35.226562 40.234375 -34.8125 L 66.1875 -9.828125 C 66.625 -9.398438 66.863281 -8.882812 66.90625 -8.28125 C 66.957031 -7.675781 66.753906 -7.132812 66.296875 -6.65625 C 65.835938 -6.1875 65.316406 -5.972656 64.734375 -6.015625 C 64.148438 -6.054688 63.640625 -6.289062 63.203125 -6.71875 Z M 37.25 -31.703125 "/></g></g></g><g fill="#ffffff" fill-opacity="1"><g transform="translate(6.802821, 240.840184)"><g><path d="M 5.328125 -19.03125 C 4.898438 -18.65625 4.613281 -18.238281 4.46875 -17.78125 C 4.320312 -17.332031 4.25 -16.851562 4.25 -16.34375 C 4.25 -15.832031 4.46875 -15.363281 4.90625 -14.9375 C 5.34375 -14.507812 5.921875 -14.144531 6.640625 -13.84375 C 7.367188 -13.550781 8.195312 -13.289062 9.125 -13.0625 C 10.0625 -12.84375 11.007812 -12.613281 11.96875 -12.375 C 12.925781 -12.132812 13.867188 -11.863281 14.796875 -11.5625 C 15.734375 -11.257812 16.5625 -10.867188 17.28125 -10.390625 C 18.882812 -9.367188 19.6875 -7.976562 19.6875 -6.21875 C 19.6875 -4.113281 18.898438 -2.503906 17.328125 -1.390625 C 15.753906 -0.285156 13.578125 0.265625 10.796875 0.265625 C 7.648438 0.265625 5.25 -0.390625 3.59375 -1.703125 C 2.125 -2.878906 1.289062 -4.550781 1.09375 -6.71875 L 3.734375 -6.71875 C 3.828125 -5.175781 4.570312 -4 5.96875 -3.1875 C 7.195312 -2.488281 8.816406 -2.140625 10.828125 -2.140625 C 15.035156 -2.140625 17.140625 -3.460938 17.140625 -6.109375 C 17.140625 -7.015625 16.757812 -7.726562 16 -8.25 C 15.25 -8.769531 14.300781 -9.195312 13.15625 -9.53125 C 12.007812 -9.875 10.773438 -10.191406 9.453125 -10.484375 C 8.128906 -10.785156 6.894531 -11.164062 5.75 -11.625 C 4.613281 -12.09375 3.664062 -12.703125 2.90625 -13.453125 C 2.144531 -14.210938 1.765625 -15.238281 1.765625 -16.53125 C 1.765625 -18.363281 2.460938 -19.859375 3.859375 -21.015625 C 5.265625 -22.171875 7.382812 -22.75 10.21875 -22.75 C 13.070312 -22.75 15.28125 -22.09375 16.84375 -20.78125 C 18.269531 -19.625 19.023438 -18.140625 19.109375 -16.328125 L 16.5 -16.328125 C 16.269531 -18.179688 15.070312 -19.414062 12.90625 -20.03125 C 12.132812 -20.257812 11.175781 -20.375 10.03125 -20.375 C 8.882812 -20.375 7.921875 -20.242188 7.140625 -19.984375 C 6.359375 -19.722656 5.753906 -19.40625 5.328125 -19.03125 Z M 5.328125 -19.03125 "/></g></g></g><g fill="#ffffff" fill-opacity="1"><g transform="translate(27.683125, 240.840184)"><g><path d="M 14.46875 0 L 14.46875 -2.640625 C 13.851562 -1.828125 13.101562 -1.140625 12.21875 -0.578125 C 11.34375 -0.015625 10.335938 0.265625 9.203125 0.265625 C 8.066406 0.265625 7.09375 0.109375 6.28125 -0.203125 C 5.46875 -0.515625 4.753906 -0.988281 4.140625 -1.625 C 2.734375 -3.007812 2.03125 -4.832031 2.03125 -7.09375 L 2.03125 -16.984375 L 4.578125 -16.984375 L 4.578125 -7.171875 C 4.578125 -5.609375 5.019531 -4.359375 5.90625 -3.421875 C 6.789062 -2.492188 7.9375 -2.03125 9.34375 -2.03125 C 10.757812 -2.03125 11.96875 -2.507812 12.96875 -3.46875 C 13.96875 -4.4375 14.46875 -5.679688 14.46875 -7.203125 L 14.46875 -16.984375 L 17.015625 -16.984375 L 17.015625 0 Z M 14.46875 0 "/></g></g></g><g fill="#ffffff" fill-opacity="1"><g transform="translate(46.899801, 240.840184)"><g><path d="M 15.453125 -2.71875 C 14.085938 -0.726562 12.0625 0.265625 9.375 0.265625 C 6.925781 0.265625 4.929688 -0.582031 3.390625 -2.28125 C 1.898438 -3.945312 1.15625 -6.015625 1.15625 -8.484375 C 1.15625 -10.953125 1.898438 -13.023438 3.390625 -14.703125 C 4.929688 -16.398438 6.976562 -17.25 9.53125 -17.25 C 12.09375 -17.25 14.066406 -16.238281 15.453125 -14.21875 L 15.453125 -16.984375 L 18 -16.984375 L 18 0 L 15.453125 0 Z M 9.703125 -2.03125 C 11.535156 -2.03125 12.988281 -2.664062 14.0625 -3.9375 C 15.070312 -5.132812 15.578125 -6.648438 15.578125 -8.484375 C 15.578125 -10.316406 15.070312 -11.832031 14.0625 -13.03125 C 12.988281 -14.300781 11.535156 -14.9375 9.703125 -14.9375 C 7.898438 -14.9375 6.429688 -14.300781 5.296875 -13.03125 C 4.234375 -11.832031 3.703125 -10.316406 3.703125 -8.484375 C 3.703125 -6.648438 4.234375 -5.132812 5.296875 -3.9375 C 6.429688 -2.664062 7.898438 -2.03125 9.703125 -2.03125 Z M 9.703125 -2.03125 "/></g></g></g><g fill="#ffffff" fill-opacity="1"><g transform="translate(67.101076, 240.840184)"><g/></g></g><g fill="#ffffff" fill-opacity="1"><g transform="translate(74.332791, 240.840184)"><g><path d="M 15.453125 -2.71875 C 14.085938 -0.726562 12.0625 0.265625 9.375 0.265625 C 6.925781 0.265625 4.929688 -0.582031 3.390625 -2.28125 C 1.898438 -3.945312 1.15625 -6.015625 1.15625 -8.484375 C 1.15625 -10.953125 1.898438 -13.023438 3.390625 -14.703125 C 4.929688 -16.398438 6.976562 -17.25 9.53125 -17.25 C 12.09375 -17.25 14.066406 -16.238281 15.453125 -14.21875 L 15.453125 -16.984375 L 18 -16.984375 L 18 0 L 15.453125 0 Z M 9.703125 -2.03125 C 11.535156 -2.03125 12.988281 -2.664062 14.0625 -3.9375 C 15.070312 -5.132812 15.578125 -6.648438 15.578125 -8.484375 C 15.578125 -10.316406 15.070312 -11.832031 14.0625 -13.03125 C 12.988281 -14.300781 11.535156 -14.9375 9.703125 -14.9375 C 7.898438 -14.9375 6.429688 -14.300781 5.296875 -13.03125 C 4.234375 -11.832031 3.703125 -10.316406 3.703125 -8.484375 C 3.703125 -6.648438 4.234375 -5.132812 5.296875 -3.9375 C 6.429688 -2.664062 7.898438 -2.03125 9.703125 -2.03125 Z M 9.703125 -2.03125 "/></g></g></g><g fill="#ffffff" fill-opacity="1"><g transform="translate(94.534066, 240.840184)"><g><path d="M 10.046875 -2.03125 C 11.140625 -2.03125 12.101562 -2.335938 12.9375 -2.953125 C 13.769531 -3.566406 14.378906 -4.359375 14.765625 -5.328125 L 17.515625 -5.328125 C 16.992188 -3.648438 16.046875 -2.304688 14.671875 -1.296875 C 13.222656 -0.253906 11.5 0.265625 9.5 0.265625 C 7.007812 0.265625 4.984375 -0.582031 3.421875 -2.28125 C 1.910156 -3.925781 1.15625 -5.992188 1.15625 -8.484375 C 1.15625 -10.972656 1.910156 -13.046875 3.421875 -14.703125 C 4.984375 -16.398438 7.007812 -17.25 9.5 -17.25 C 11.5 -17.25 13.222656 -16.726562 14.671875 -15.6875 C 16.046875 -14.664062 16.992188 -13.316406 17.515625 -11.640625 L 14.765625 -11.640625 C 14.378906 -12.617188 13.769531 -13.410156 12.9375 -14.015625 C 12.101562 -14.628906 11.140625 -14.9375 10.046875 -14.9375 C 8.960938 -14.9375 8.039062 -14.765625 7.28125 -14.421875 C 6.519531 -14.085938 5.878906 -13.625 5.359375 -13.03125 C 4.253906 -11.8125 3.703125 -10.296875 3.703125 -8.484375 C 3.703125 -6.671875 4.253906 -5.15625 5.359375 -3.9375 C 6.492188 -2.664062 8.054688 -2.03125 10.046875 -2.03125 Z M 10.046875 -2.03125 "/></g></g></g><g fill="#ffffff" fill-opacity="1"><g transform="translate(113.003801, 240.840184)"><g><path d="M 15.453125 -2.71875 C 14.085938 -0.726562 12.0625 0.265625 9.375 0.265625 C 6.925781 0.265625 4.929688 -0.582031 3.390625 -2.28125 C 1.898438 -3.945312 1.15625 -6.015625 1.15625 -8.484375 C 1.15625 -10.953125 1.898438 -13.023438 3.390625 -14.703125 C 4.929688 -16.398438 6.976562 -17.25 9.53125 -17.25 C 12.09375 -17.25 14.066406 -16.238281 15.453125 -14.21875 L 15.453125 -16.984375 L 18 -16.984375 L 18 0 L 15.453125 0 Z M 9.703125 -2.03125 C 11.535156 -2.03125 12.988281 -2.664062 14.0625 -3.9375 C 15.070312 -5.132812 15.578125 -6.648438 15.578125 -8.484375 C 15.578125 -10.316406 15.070312 -11.832031 14.0625 -13.03125 C 12.988281 -14.300781 11.535156 -14.9375 9.703125 -14.9375 C 7.898438 -14.9375 6.429688 -14.300781 5.296875 -13.03125 C 4.234375 -11.832031 3.703125 -10.316406 3.703125 -8.484375 C 3.703125 -6.648438 4.234375 -5.132812 5.296875 -3.9375 C 6.429688 -2.664062 7.898438 -2.03125 9.703125 -2.03125 Z M 9.703125 -2.03125 "/></g></g></g><g fill="#ffffff" fill-opacity="1"><g transform="translate(133.205076, 240.840184)"><g><path d="M 15.453125 -2.71875 C 14.085938 -0.726562 12.0625 0.265625 9.375 0.265625 C 6.925781 0.265625 4.929688 -0.582031 3.390625 -2.28125 C 1.898438 -3.945312 1.15625 -6.015625 1.15625 -8.484375 C 1.15625 -10.953125 1.898438 -13.023438 3.390625 -14.703125 C 4.929688 -16.398438 6.976562 -17.25 9.53125 -17.25 C 12.09375 -17.25 14.066406 -16.238281 15.453125 -14.21875 L 15.453125 -23.765625 L 18 -23.765625 L 18 0 L 15.453125 0 Z M 9.703125 -2.03125 C 11.535156 -2.03125 12.988281 -2.664062 14.0625 -3.9375 C 15.070312 -5.132812 15.578125 -6.648438 15.578125 -8.484375 C 15.578125 -10.316406 15.070312 -11.832031 14.0625 -13.03125 C 12.988281 -14.300781 11.535156 -14.9375 9.703125 -14.9375 C 7.898438 -14.9375 6.429688 -14.300781 5.296875 -13.03125 C 4.234375 -11.832031 3.703125 -10.316406 3.703125 -8.484375 C 3.703125 -6.648438 4.234375 -5.132812 5.296875 -3.9375 C 6.429688 -2.664062 7.898438 -2.03125 9.703125 -2.03125 Z M 9.703125 -2.03125 "/></g></g></g><g fill="#ffffff" fill-opacity="1"><g transform="translate(153.406351, 240.840184)"><g><path d="M 9.78125 -2.03125 C 12.0625 -2.03125 13.703125 -2.984375 14.703125 -4.890625 L 17.484375 -4.890625 C 16.898438 -3.347656 15.96875 -2.101562 14.6875 -1.15625 C 13.40625 -0.207031 11.757812 0.265625 9.75 0.265625 C 7.1875 0.265625 5.101562 -0.582031 3.5 -2.28125 C 1.9375 -3.925781 1.15625 -5.992188 1.15625 -8.484375 C 1.15625 -10.992188 1.898438 -13.066406 3.390625 -14.703125 C 4.972656 -16.398438 7.035156 -17.25 9.578125 -17.25 C 12.109375 -17.25 14.164062 -16.398438 15.75 -14.703125 C 17.25 -13.066406 18 -10.992188 18 -8.484375 L 18 -7.46875 L 3.765625 -7.46875 C 3.953125 -5.90625 4.578125 -4.613281 5.640625 -3.59375 C 6.722656 -2.550781 8.101562 -2.03125 9.78125 -2.03125 Z M 9.578125 -14.9375 C 8.015625 -14.9375 6.703125 -14.453125 5.640625 -13.484375 C 4.640625 -12.554688 4.023438 -11.34375 3.796875 -9.84375 L 15.34375 -9.84375 C 15.113281 -11.34375 14.503906 -12.554688 13.515625 -13.484375 C 12.453125 -14.453125 11.140625 -14.9375 9.578125 -14.9375 Z M 9.578125 -14.9375 "/></g></g></g><g fill="#ffffff" fill-opacity="1"><g transform="translate(172.317457, 240.840184)"><g><path d="M 4.75 -14.390625 C 5.882812 -16.296875 7.609375 -17.25 9.921875 -17.25 C 11.046875 -17.25 12.085938 -16.945312 13.046875 -16.34375 C 14.015625 -15.75 14.769531 -14.90625 15.3125 -13.8125 C 16.082031 -15.238281 17.28125 -16.257812 18.90625 -16.875 C 19.5625 -17.125 20.300781 -17.25 21.125 -17.25 C 21.957031 -17.25 22.753906 -17.082031 23.515625 -16.75 C 24.273438 -16.425781 24.945312 -15.957031 25.53125 -15.34375 C 26.800781 -13.988281 27.4375 -12.289062 27.4375 -10.25 L 27.4375 0 L 24.890625 0 L 24.890625 -10.1875 C 24.890625 -11.59375 24.492188 -12.75 23.703125 -13.65625 C 22.910156 -14.507812 21.898438 -14.9375 20.671875 -14.9375 C 19.378906 -14.9375 18.304688 -14.519531 17.453125 -13.6875 C 16.546875 -12.820312 16.09375 -11.644531 16.09375 -10.15625 L 16.09375 0 L 13.546875 0 L 13.546875 -10.1875 C 13.546875 -11.59375 13.148438 -12.75 12.359375 -13.65625 C 11.566406 -14.507812 10.5625 -14.9375 9.34375 -14.9375 C 8.050781 -14.9375 6.972656 -14.519531 6.109375 -13.6875 C 5.203125 -12.820312 4.75 -11.644531 4.75 -10.15625 L 4.75 0 L 2.203125 0 L 2.203125 -16.984375 L 4.75 -16.984375 Z M 4.75 -14.390625 "/></g></g></g><g fill="#ffffff" fill-opacity="1"><g transform="translate(201.787556, 240.840184)"><g><path d="M 2.203125 -16.984375 L 4.75 -16.984375 L 4.75 0 L 2.203125 0 Z M 4.859375 -23.15625 L 4.859375 -19.828125 L 2.109375 -19.828125 L 2.109375 -23.15625 Z M 4.859375 -23.15625 "/></g></g></g><g fill="#ffffff" fill-opacity="1"><g transform="translate(208.747657, 240.840184)"><g><path d="M 15.453125 -2.71875 C 14.085938 -0.726562 12.0625 0.265625 9.375 0.265625 C 6.925781 0.265625 4.929688 -0.582031 3.390625 -2.28125 C 1.898438 -3.945312 1.15625 -6.015625 1.15625 -8.484375 C 1.15625 -10.953125 1.898438 -13.023438 3.390625 -14.703125 C 4.929688 -16.398438 6.976562 -17.25 9.53125 -17.25 C 12.09375 -17.25 14.066406 -16.238281 15.453125 -14.21875 L 15.453125 -16.984375 L 18 -16.984375 L 18 0 L 15.453125 0 Z M 9.703125 -2.03125 C 11.535156 -2.03125 12.988281 -2.664062 14.0625 -3.9375 C 15.070312 -5.132812 15.578125 -6.648438 15.578125 -8.484375 C 15.578125 -10.316406 15.070312 -11.832031 14.0625 -13.03125 C 12.988281 -14.300781 11.535156 -14.9375 9.703125 -14.9375 C 7.898438 -14.9375 6.429688 -14.300781 5.296875 -13.03125 C 4.234375 -11.832031 3.703125 -10.316406 3.703125 -8.484375 C 3.703125 -6.648438 4.234375 -5.132812 5.296875 -3.9375 C 6.429688 -2.664062 7.898438 -2.03125 9.703125 -2.03125 Z M 9.703125 -2.03125 "/></g></g></g><g fill="#ffffff" fill-opacity="1"><g transform="translate(228.948932, 240.840184)"><g/></g></g><g fill="#ffffff" fill-opacity="1"><g transform="translate(236.180658, 240.840184)"><g><path d="M 9.78125 -2.03125 C 12.0625 -2.03125 13.703125 -2.984375 14.703125 -4.890625 L 17.484375 -4.890625 C 16.898438 -3.347656 15.96875 -2.101562 14.6875 -1.15625 C 13.40625 -0.207031 11.757812 0.265625 9.75 0.265625 C 7.1875 0.265625 5.101562 -0.582031 3.5 -2.28125 C 1.9375 -3.925781 1.15625 -5.992188 1.15625 -8.484375 C 1.15625 -10.992188 1.898438 -13.066406 3.390625 -14.703125 C 4.972656 -16.398438 7.035156 -17.25 9.578125 -17.25 C 12.109375 -17.25 14.164062 -16.398438 15.75 -14.703125 C 17.25 -13.066406 18 -10.992188 18 -8.484375 L 18 -7.46875 L 3.765625 -7.46875 C 3.953125 -5.90625 4.578125 -4.613281 5.640625 -3.59375 C 6.722656 -2.550781 8.101562 -2.03125 9.78125 -2.03125 Z M 9.578125 -14.9375 C 8.015625 -14.9375 6.703125 -14.453125 5.640625 -13.484375 C 4.640625 -12.554688 4.023438 -11.34375 3.796875 -9.84375 L 15.34375 -9.84375 C 15.113281 -11.34375 14.503906 -12.554688 13.515625 -13.484375 C 12.453125 -14.453125 11.140625 -14.9375 9.578125 -14.9375 Z M 9.578125 -14.9375 "/></g></g></g><g fill="#ffffff" fill-opacity="1"><g transform="translate(255.091765, 240.840184)"><g><path d="M 4.75 -14.390625 C 5.882812 -16.296875 7.609375 -17.25 9.921875 -17.25 C 11.046875 -17.25 12.085938 -16.945312 13.046875 -16.34375 C 14.015625 -15.75 14.769531 -14.90625 15.3125 -13.8125 C 16.082031 -15.238281 17.28125 -16.257812 18.90625 -16.875 C 19.5625 -17.125 20.300781 -17.25 21.125 -17.25 C 21.957031 -17.25 22.753906 -17.082031 23.515625 -16.75 C 24.273438 -16.425781 24.945312 -15.957031 25.53125 -15.34375 C 26.800781 -13.988281 27.4375 -12.289062 27.4375 -10.25 L 27.4375 0 L 24.890625 0 L 24.890625 -10.1875 C 24.890625 -11.59375 24.492188 -12.75 23.703125 -13.65625 C 22.910156 -14.507812 21.898438 -14.9375 20.671875 -14.9375 C 19.378906 -14.9375 18.304688 -14.519531 17.453125 -13.6875 C 16.546875 -12.820312 16.09375 -11.644531 16.09375 -10.15625 L 16.09375 0 L 13.546875 0 L 13.546875 -10.1875 C 13.546875 -11.59375 13.148438 -12.75 12.359375 -13.65625 C 11.566406 -14.507812 10.5625 -14.9375 9.34375 -14.9375 C 8.050781 -14.9375 6.972656 -14.519531 6.109375 -13.6875 C 5.203125 -12.820312 4.75 -11.644531 4.75 -10.15625 L 4.75 0 L 2.203125 0 L 2.203125 -16.984375 L 4.75 -16.984375 Z M 4.75 -14.390625 "/></g></g></g><g fill="#ffffff" fill-opacity="1"><g transform="translate(284.561852, 240.840184)"><g/></g></g><g fill="#ffffff" fill-opacity="1"><g transform="translate(291.793579, 240.840184)"><g><path d="M 10.046875 -2.03125 C 11.140625 -2.03125 12.101562 -2.335938 12.9375 -2.953125 C 13.769531 -3.566406 14.378906 -4.359375 14.765625 -5.328125 L 17.515625 -5.328125 C 16.992188 -3.648438 16.046875 -2.304688 14.671875 -1.296875 C 13.222656 -0.253906 11.5 0.265625 9.5 0.265625 C 7.007812 0.265625 4.984375 -0.582031 3.421875 -2.28125 C 1.910156 -3.925781 1.15625 -5.992188 1.15625 -8.484375 C 1.15625 -10.972656 1.910156 -13.046875 3.421875 -14.703125 C 4.984375 -16.398438 7.007812 -17.25 9.5 -17.25 C 11.5 -17.25 13.222656 -16.726562 14.671875 -15.6875 C 16.046875 -14.664062 16.992188 -13.316406 17.515625 -11.640625 L 14.765625 -11.640625 C 14.378906 -12.617188 13.769531 -13.410156 12.9375 -14.015625 C 12.101562 -14.628906 11.140625 -14.9375 10.046875 -14.9375 C 8.960938 -14.9375 8.039062 -14.765625 7.28125 -14.421875 C 6.519531 -14.085938 5.878906 -13.625 5.359375 -13.03125 C 4.253906 -11.8125 3.703125 -10.296875 3.703125 -8.484375 C 3.703125 -6.671875 4.253906 -5.15625 5.359375 -3.9375 C 6.492188 -2.664062 8.054688 -2.03125 10.046875 -2.03125 Z M 10.046875 -2.03125 "/></g></g></g><g fill="#ffffff" fill-opacity="1"><g transform="translate(310.263314, 240.840184)"><g><path d="M 15.453125 -2.71875 C 14.085938 -0.726562 12.0625 0.265625 9.375 0.265625 C 6.925781 0.265625 4.929688 -0.582031 3.390625 -2.28125 C 1.898438 -3.945312 1.15625 -6.015625 1.15625 -8.484375 C 1.15625 -10.953125 1.898438 -13.023438 3.390625 -14.703125 C 4.929688 -16.398438 6.976562 -17.25 9.53125 -17.25 C 12.09375 -17.25 14.066406 -16.238281 15.453125 -14.21875 L 15.453125 -16.984375 L 18 -16.984375 L 18 0 L 15.453125 0 Z M 9.703125 -2.03125 C 11.535156 -2.03125 12.988281 -2.664062 14.0625 -3.9375 C 15.070312 -5.132812 15.578125 -6.648438 15.578125 -8.484375 C 15.578125 -10.316406 15.070312 -11.832031 14.0625 -13.03125 C 12.988281 -14.300781 11.535156 -14.9375 9.703125 -14.9375 C 7.898438 -14.9375 6.429688 -14.300781 5.296875 -13.03125 C 4.234375 -11.832031 3.703125 -10.316406 3.703125 -8.484375 C 3.703125 -6.648438 4.234375 -5.132812 5.296875 -3.9375 C 6.429688 -2.664062 7.898438 -2.03125 9.703125 -2.03125 Z M 9.703125 -2.03125 "/></g></g></g><g fill="#ffffff" fill-opacity="1"><g transform="translate(330.464589, 240.840184)"><g><path d="M 12.1875 -12.421875 C 11.957031 -14.191406 10.535156 -15.078125 7.921875 -15.078125 C 5.304688 -15.078125 4 -14.257812 4 -12.625 C 4 -11.945312 4.273438 -11.429688 4.828125 -11.078125 C 5.390625 -10.734375 6.085938 -10.445312 6.921875 -10.21875 C 7.765625 -9.988281 8.675781 -9.773438 9.65625 -9.578125 C 10.644531 -9.390625 11.554688 -9.117188 12.390625 -8.765625 C 13.234375 -8.421875 13.929688 -7.941406 14.484375 -7.328125 C 15.035156 -6.722656 15.3125 -5.890625 15.3125 -4.828125 C 15.3125 -3.171875 14.6875 -1.90625 13.4375 -1.03125 C 12.195312 -0.164062 10.515625 0.265625 8.390625 0.265625 C 6.117188 0.265625 4.316406 -0.296875 2.984375 -1.421875 C 1.765625 -2.421875 1.109375 -3.722656 1.015625 -5.328125 L 3.671875 -5.328125 C 3.828125 -3.765625 4.707031 -2.710938 6.3125 -2.171875 C 6.90625 -1.992188 7.488281 -1.90625 8.0625 -1.90625 C 8.644531 -1.90625 9.179688 -1.9375 9.671875 -2 C 10.171875 -2.070312 10.660156 -2.195312 11.140625 -2.375 C 12.222656 -2.800781 12.765625 -3.535156 12.765625 -4.578125 C 12.765625 -5.285156 12.488281 -5.820312 11.9375 -6.1875 C 11.382812 -6.5625 10.6875 -6.867188 9.84375 -7.109375 C 9.007812 -7.347656 8.097656 -7.5625 7.109375 -7.75 C 6.128906 -7.945312 5.21875 -8.210938 4.375 -8.546875 C 3.539062 -8.890625 2.84375 -9.351562 2.28125 -9.9375 C 1.726562 -10.53125 1.453125 -11.347656 1.453125 -12.390625 C 1.453125 -13.929688 2.015625 -15.125 3.140625 -15.96875 C 4.265625 -16.820312 5.921875 -17.25 8.109375 -17.25 C 10.191406 -17.25 11.832031 -16.75 13.03125 -15.75 C 14.03125 -14.914062 14.609375 -13.804688 14.765625 -12.421875 Z M 12.1875 -12.421875 "/></g></g></g><g fill="#ffffff" fill-opacity="1"><g transform="translate(346.829327, 240.840184)"><g><path d="M 15.453125 -2.71875 C 14.085938 -0.726562 12.0625 0.265625 9.375 0.265625 C 6.925781 0.265625 4.929688 -0.582031 3.390625 -2.28125 C 1.898438 -3.945312 1.15625 -6.015625 1.15625 -8.484375 C 1.15625 -10.953125 1.898438 -13.023438 3.390625 -14.703125 C 4.929688 -16.398438 6.976562 -17.25 9.53125 -17.25 C 12.09375 -17.25 14.066406 -16.238281 15.453125 -14.21875 L 15.453125 -16.984375 L 18 -16.984375 L 18 0 L 15.453125 0 Z M 9.703125 -2.03125 C 11.535156 -2.03125 12.988281 -2.664062 14.0625 -3.9375 C 15.070312 -5.132812 15.578125 -6.648438 15.578125 -8.484375 C 15.578125 -10.316406 15.070312 -11.832031 14.0625 -13.03125 C 12.988281 -14.300781 11.535156 -14.9375 9.703125 -14.9375 C 7.898438 -14.9375 6.429688 -14.300781 5.296875 -13.03125 C 4.234375 -11.832031 3.703125 -10.316406 3.703125 -8.484375 C 3.703125 -6.648438 4.234375 -5.132812 5.296875 -3.9375 C 6.429688 -2.664062 7.898438 -2.03125 9.703125 -2.03125 Z M 9.703125 -2.03125 "/></g></g></g><g fill="#ffffff" fill-opacity="1"><g transform="translate(367.030602, 240.840184)"><g><path d="M 5.40625 -3.46875 L 5.40625 0 L 2.109375 0 L 2.109375 -3.46875 Z M 2.8125 -6.21875 L 2.171875 -22.484375 L 5.328125 -22.484375 L 4.6875 -6.21875 Z M 2.8125 -6.21875 "/></g></g></g></svg>